<svg width="57" height="58" viewBox="0 0 57 58" fill="none" xmlns="http://www.w3.org/2000/svg">
<mask id="mask0_2_251" style="mask-type:luminance" maskUnits="userSpaceOnUse" x="0" y="0" width="57" height="58">
<path d="M56.7954 0.875H0.428406V57.242H56.7954V0.875Z" fill="white"/>
</mask>
<g mask="url(#mask0_2_251)">
<path fill-rule="evenodd" clip-rule="evenodd" d="M32.7899 4.14253C32.4448 3.56736 31.9272 3.0497 31.1795 2.99219L31.4095 3.33729L31.5246 3.56736L31.9272 4.31509L32.0422 4.43012C32.3298 5.12033 32.5024 5.81054 32.5599 6.55826C32.5599 6.96088 32.4448 7.30599 32.3298 7.70861C32.1573 6.73081 31.6396 5.98309 31.0644 5.29288C30.454 4.66797 29.7053 4.19514 28.8788 3.91246C27.7456 3.46215 26.5034 3.36197 25.3127 3.62488C24.8526 3.6824 24.4499 3.91246 23.9898 4.14253C23.5872 4.3726 23.2421 4.71771 22.897 5.00529C22.0615 5.83587 21.4142 6.83623 20.9989 7.93868C20.6538 8.80144 20.2512 9.6642 19.7335 10.4694C19.3309 11.1596 18.7557 11.7923 18.1806 12.31L16.5701 13.4028C15.6244 13.9977 14.7033 14.631 13.8092 15.3009C12.4863 16.4512 11.5085 18.0042 10.9909 19.7297C10.7608 20.5925 10.5883 21.5128 10.7033 22.3755C10.8183 22.8357 10.9334 23.2383 11.1634 23.6409V24.101C10.9334 25.1939 10.8759 26.3442 11.221 27.437C11.5996 28.7272 12.2464 29.9228 13.119 30.9456L13.9243 32.0384C14.2694 32.6136 14.557 33.2463 14.6145 33.9365C14.6145 34.4542 14.4419 34.9143 14.0393 35.2594C13.7298 35.5313 13.3513 35.7127 12.9455 35.7838C12.5397 35.8548 12.1221 35.8127 11.7386 35.662L11.451 35.4895L11.221 35.3744L11.1634 35.4895C11.1059 35.547 11.0484 35.662 11.1059 35.7771L11.5085 36.5248C11.8536 36.9849 12.2563 37.33 12.7739 37.5601C13.1765 37.7902 13.6367 37.8477 14.0968 37.7326C14.3844 37.6751 14.6145 37.5601 14.8445 37.3875C14.8445 37.9627 15.0171 38.5379 15.1897 39.0555C15.4197 39.6882 15.7648 40.3209 16.2825 40.7811C16.7426 41.2412 17.3178 41.4713 17.893 41.6438C18.4106 41.8164 18.9283 41.8164 19.4459 41.7013C19.561 41.6438 19.561 41.5863 19.561 41.4713L19.3884 41.0686L19.3309 40.9536L18.8708 39.8033C19.9061 40.551 21.1139 40.8961 22.3793 41.0111C23.1846 41.0686 24.0473 40.9536 24.795 40.666C24.9676 40.6085 25.1977 40.4935 25.2552 40.3209C25.3702 40.1484 25.2552 39.9758 25.1977 39.8033L24.9676 38.9405L24.9101 38.768C25.4277 39.1131 25.9454 39.3431 26.5781 39.3431C27.2683 39.3431 28.016 39.0555 28.4186 38.4804L28.5912 38.4228C28.3035 35.8858 27.7047 33.3938 26.8081 31.0031C26.4193 29.9651 25.9381 28.9641 25.3702 28.0122L25.2552 27.6671C25.2552 26.8044 25.1401 25.8266 24.6225 25.1364C25.0251 24.5037 25.0826 23.6984 25.1401 23.0082C25.1401 22.433 25.1401 21.8579 24.8526 21.3402L25.0826 21.2827L25.5428 21.2252C25.6578 21.1677 25.7153 20.9951 25.7728 20.8801C26.1579 19.2816 26.7374 17.7363 27.4984 16.2787L27.901 15.4734C28.016 15.3009 28.016 15.1283 28.0735 14.8983V14.6682L27.9585 13.863L27.901 13.3453L29.0513 13.6904H29.6265C32.5335 13.19 35.4975 13.1125 38.4266 13.4603L38.8293 13.5754L39.1169 13.6904C39.2319 13.6904 39.4044 13.6329 39.462 13.5179C39.6345 13.3453 39.692 13.1152 39.7495 12.8852L39.9221 13.0002L40.4398 13.4028L40.8424 13.6329C41.1077 13.6825 41.3779 13.7018 41.6476 13.6904L42.5679 14.6107L42.6254 14.6682C43.8375 16.0541 44.8802 17.5795 45.7313 19.2121C45.9614 19.3846 46.249 19.2696 46.364 19.0395C46.7667 18.1192 46.8242 17.0839 46.6516 16.1061C46.3321 14.6456 45.5686 13.3196 44.466 12.31C44.1209 11.9074 43.6607 11.5623 43.2006 11.2172L40.7849 9.95178C39.577 9.43413 38.3116 9.0315 37.0462 8.80144C35.6083 8.51385 34.1704 8.51385 32.6749 8.57137C33.3076 7.93868 33.4802 7.07592 33.4802 6.21316C33.4802 5.46543 33.1926 4.77522 32.7899 4.14253ZM17.9505 14.3806C18.6407 13.5754 19.3309 12.7701 19.8486 11.7923L18.9283 12.7701C18.3531 13.2878 17.7204 13.6329 17.0877 14.0355L16.455 14.4381L16.2825 14.4956C15.5348 14.9558 14.7295 15.4734 14.0968 16.0486C12.8314 17.1414 11.9687 18.6369 11.5661 20.2474C11.3935 21.1101 11.2785 22.0304 11.5085 22.8932C11.8536 21.8579 12.3713 20.8226 12.9465 19.9023C13.6942 18.7519 14.6145 17.6591 15.5923 16.6813L16.6851 15.5885L17.9505 14.3806Z" fill="#262626"/>
<path d="M34.4578 9.37807C36.0683 9.43558 37.6788 9.72317 39.2893 10.2408C41.5406 10.8764 43.5462 12.18 45.041 13.9794C46.1338 15.4174 46.824 17.1429 47.0541 18.9259C47.3645 20.8474 47.4032 22.8029 47.1691 24.7352L46.8815 26.6908L46.6515 27.8411C46.594 27.9562 46.594 27.9562 46.4789 27.9562C46.3639 27.7261 46.3639 27.496 46.3639 27.2659C46.3064 26.4032 46.4214 25.5979 46.4789 24.7352C46.5364 23.3548 46.6515 21.9744 46.5364 20.5939L46.1913 18.0057C45.7887 16.3952 45.041 14.8997 43.8906 13.6919C42.8553 12.6566 41.5899 11.7938 40.2671 11.2186C39.0017 10.701 37.7363 10.3559 36.4134 10.1258C35.3781 9.95324 34.3428 9.89572 33.3075 9.89572C30.7552 9.85392 28.2303 10.426 25.9452 11.5637C25.1975 12.0814 24.5073 12.7141 23.9321 13.4043C22.1623 15.7275 21.0677 18.494 20.7687 21.3992C20.7112 22.7796 20.7687 24.1025 21.2288 25.4254L21.6314 26.2882L22.3217 26.3457L22.3792 26.5182C22.2066 26.6333 21.9765 26.6333 21.7465 26.6908C21.1713 26.8058 20.5961 27.0359 20.0785 27.381C19.6759 27.6686 19.2732 28.0137 19.0432 28.4738C18.7556 29.049 18.8706 29.7392 18.9856 30.3719C19.2732 31.4647 19.9634 32.5 20.8837 33.1902C21.5164 33.7079 22.3217 33.9955 23.1269 34.1105C23.7021 34.2255 24.2772 34.1105 24.8524 34.053C25.14 34.2831 25.3126 34.7432 25.4851 35.0308L26.5204 36.5838C27.4561 37.9136 28.783 38.9189 30.3166 39.4596C31.5819 39.9773 32.9048 40.2649 34.2277 40.5524L36.5859 41.0126L37.5637 41.3002V41.5302H36.8735C35.5806 41.4581 34.2935 41.3044 33.0199 41.0701C31.3093 40.7297 29.6732 40.0869 28.1884 39.172C27.5557 38.7694 26.9806 38.2518 26.5204 37.6191C26.9188 40.0164 26.5986 42.478 25.6001 44.6937C24.7374 46.2467 23.2994 47.4545 21.5739 47.9722C21.4014 48.0297 21.1713 48.0872 20.9988 48.0297C20.8837 48.0297 20.8837 47.9722 20.8837 47.8571C20.9412 47.6846 21.1138 47.5696 21.2288 47.512C21.919 47.0519 22.7243 46.7068 23.4145 46.1891C24.1622 45.5564 24.7949 44.8662 25.1975 44.0035C25.5426 43.1407 25.7727 42.1629 25.8877 41.1851C26.0028 40.4374 26.0603 39.6897 26.0028 38.8844L25.7727 36.6988L24.7374 34.6282L23.6445 34.8582C22.8002 34.8828 21.9632 34.6957 21.2097 34.3139C20.4563 33.9322 19.8103 33.3679 19.3307 32.6726C18.581 31.7227 18.1755 30.5467 18.1804 29.3366C18.1804 28.8189 18.353 28.3013 18.6405 27.8986C18.9281 27.496 19.3307 27.1509 19.7334 26.9208C20.021 26.6908 20.4236 26.5757 20.7687 26.4607L20.251 25.0803C19.9634 23.8149 19.9634 22.492 20.136 21.2266C20.5126 18.0857 21.7687 15.115 23.7596 12.6566C24.2772 12.0814 24.7949 11.5637 25.4276 11.1611C25.8302 10.931 26.2328 10.8735 26.5779 10.6434C29.0512 9.55062 31.7545 9.20551 34.4578 9.37807Z" fill="#262626"/>
<path d="M33.3068 9.89415C35.6967 9.80526 38.0758 10.2575 40.2664 11.2171C41.5893 11.7922 42.8547 12.655 43.89 13.6903C45.0403 14.8982 45.788 16.3936 46.1907 18.0041L46.5358 20.5924C46.6508 21.9728 46.5358 23.3532 46.4782 24.7336C46.4207 25.5964 46.3057 26.4016 46.3632 27.2644C46.3632 27.4944 46.3632 27.7245 46.4782 27.9546L46.4207 29.1049C46.3057 29.3925 46.3057 29.6801 46.3057 30.0252C46.1907 31.4056 46.1907 32.8436 45.9606 34.2815C45.9031 34.9717 45.788 35.7194 45.5005 36.3521C45.3279 36.8698 45.0403 37.3299 44.6377 37.7325C43.9475 38.4803 43.0847 39.1129 42.1644 39.6306C41.0716 40.2633 39.9213 40.5509 38.8284 41.011C38.5409 41.126 38.2533 41.2411 38.0807 41.4712C38.5409 41.5287 38.9435 41.4712 39.4036 41.3561C39.116 42.0463 39.0585 42.7365 39.0585 43.4267C39.0585 43.7143 39.001 44.0594 39.116 44.347C39.2886 44.6346 39.5762 44.8647 39.8638 45.0372L41.8769 45.785C43.1422 46.2451 44.3501 46.8203 45.6155 47.3379C45.7305 47.568 45.9031 47.7405 45.9606 48.0281C46.3057 48.6608 46.3632 49.351 46.1331 50.0412C45.8456 50.789 45.2704 51.4216 44.5802 51.8243C43.6599 52.457 42.5096 52.9171 41.4167 53.2047C36.9445 54.1602 32.3076 54.0221 27.9002 52.8021C26.7498 52.3994 25.5995 51.9968 24.5642 51.4216C23.7589 50.9615 22.8962 50.3863 22.2635 49.6386C21.9184 49.1785 21.6308 48.5458 21.5733 47.9706C22.9201 47.5595 24.1121 46.7527 24.9942 45.6552C25.8764 44.5576 26.4079 43.22 26.5197 41.8163C26.7498 40.4358 26.7498 38.9979 26.5197 37.6175C26.9799 38.2502 27.5551 38.7678 28.1877 39.1705L29.7407 39.9757C31.9957 40.9485 34.4176 41.4759 36.8729 41.5287H37.5631V41.2986L36.5853 41.011L34.2271 40.5509C32.9042 40.2633 31.5813 39.9757 30.3159 39.458C29.5682 39.1129 28.7629 38.7103 28.0727 38.2502C27.4975 37.7325 26.9799 37.2149 26.5197 36.5822L25.4844 35.0292C25.3119 34.7416 25.1393 34.2815 24.8517 34.0514C24.2766 34.1089 23.7014 34.224 23.1262 34.1089C22.321 33.9939 21.5157 33.7063 20.883 33.1887C19.9639 32.4776 19.2983 31.4893 18.985 30.3703C18.8699 29.7376 18.7549 29.0474 19.0425 28.4722C19.2726 28.0121 19.6752 27.667 20.0778 27.3794C20.5955 27.0343 21.1706 26.8042 21.7458 26.6892C21.9759 26.6317 22.2059 26.6317 22.3785 26.5167L22.321 26.3441L21.6308 26.2866L21.2282 25.4238C20.768 24.1009 20.7105 22.778 20.8255 21.3976C21.1077 18.4981 22.1822 15.7322 23.9315 13.4027C24.5066 12.7125 25.1968 12.0798 25.9446 11.5622C28.2246 10.4045 30.7498 9.81267 33.3068 9.83664V9.89415Z" fill="#FFDECC"/>
<path d="M20.9421 28.7578C21.1721 28.7578 21.3447 28.7578 21.5748 28.8728C21.8624 28.9304 22.2075 29.1029 22.38 29.333C22.495 29.5055 22.495 29.7356 22.38 29.9082C22.0924 30.2533 21.6898 30.4833 21.4597 30.8284C21.8048 31.0585 22.265 31.1735 22.6676 31.3461C22.8977 31.4036 23.1277 31.5186 23.3003 31.6912L23.3578 31.8637L22.8977 31.7487L21.5173 31.3461C21.2872 31.2886 21.0571 31.1735 20.9996 30.9435C20.9421 30.7709 21.0571 30.5408 21.1721 30.3683L22.0349 29.6206C21.8048 29.218 21.1721 29.1604 20.9421 28.7578ZM46.4222 29.1029L46.5373 29.2755L46.6523 30.1957C46.7716 31.902 46.7331 33.6156 46.5373 35.3148C46.4222 35.9475 46.2497 36.6377 45.9621 37.2129C44.4361 39.2095 42.2925 40.6453 39.8653 41.2966C39.8078 42.1018 39.6927 43.0796 39.7502 43.9999L40.0378 44.2875C40.498 44.6326 41.0731 44.8051 41.5908 44.9777C42.9362 45.4072 44.2443 45.9458 45.502 46.5882C45.9046 46.8182 46.2497 47.1058 46.5373 47.4509C46.2497 47.5085 45.9621 47.3934 45.617 47.3359C44.3516 46.8182 43.1438 46.2431 41.8784 45.7829L39.8653 45.0352C39.5777 44.8627 39.2901 44.6326 39.1175 44.345C39.0025 44.0574 39.06 43.7123 39.06 43.4247C39.06 42.7345 39.1175 42.0443 39.4051 41.3541C38.945 41.4691 38.5424 41.5267 38.0822 41.4691C38.2548 41.2391 38.5424 41.124 38.83 41.009C39.9228 40.5489 41.0731 40.2613 42.166 39.6286C43.0862 39.1109 43.949 38.4782 44.6392 37.7305C45.0418 37.3279 45.3294 36.8678 45.502 36.3501C45.7896 35.7174 45.9046 34.9697 45.9621 34.2795C46.1922 32.8415 46.1922 31.4036 46.3072 30.0232C46.3072 29.6781 46.3072 29.3905 46.4222 29.1029Z" fill="#262626"/>
<path d="M44.4655 23.1238C44.9256 23.0662 45.3858 23.1813 45.7309 23.4689C45.9034 23.6414 46.076 23.8715 46.076 24.1015C46.1335 24.3891 45.8459 24.6767 45.5583 24.6767C45.3283 24.6192 45.2132 24.5042 45.0982 24.3316L44.523 23.929C45.0407 24.8493 44.7531 26.1147 43.9478 26.7473C43.5452 27.0924 42.9125 27.2075 42.5099 26.8049C42.1648 26.5173 42.0498 26.1147 42.0498 25.6545C41.9347 25.9421 41.7622 26.1722 41.7047 26.4598C41.6471 26.5748 41.6471 26.6898 41.5321 26.6898C41.4171 26.4022 41.4746 26.0571 41.5896 25.712C41.9347 24.7918 42.5674 23.9865 43.4302 23.5264C43.7178 23.2963 44.0629 23.1813 44.4655 23.1238ZM32.2718 23.7564C33.8248 23.814 35.3202 24.7918 35.9529 26.1722C36.068 26.2872 36.183 26.5173 36.0104 26.6898C35.8379 26.6898 35.7229 26.4598 35.6078 26.3447C35.3778 25.8846 35.0327 25.5395 34.63 25.2519C34.7451 25.8846 34.7451 26.4598 34.4 27.0349C34.1124 27.4951 33.4797 27.7827 32.962 27.7251C32.5594 27.6101 32.1568 27.4376 31.8692 27.0924C31.5241 26.7473 31.4091 26.1722 31.4091 25.712C31.4091 25.3094 31.5816 24.9643 31.7542 24.6767C30.9489 24.8493 30.1437 25.1944 29.511 25.712C29.3384 25.7696 29.2234 25.8846 29.0509 25.8846C28.8208 25.8271 28.7057 25.6545 28.7057 25.4244C28.7057 25.2519 28.8208 25.0793 28.9358 24.9643C29.396 24.6192 29.8561 24.2741 30.4313 24.044C31.0064 23.814 31.6391 23.6989 32.2718 23.7564Z" fill="#262626"/>
<path d="M32.8483 17.6003C33.711 17.6578 34.6888 17.8879 35.379 18.463C35.6091 18.6356 35.8392 18.8657 35.8967 19.0957C35.9542 19.2683 35.9542 19.3833 35.7816 19.4408C35.6091 19.4408 35.4365 19.2683 35.3215 19.1532C34.6888 18.6931 33.9411 18.4055 33.1358 18.4055C32.6757 18.4055 32.2731 18.5206 31.8129 18.6356C30.9502 18.8081 30.1449 19.2683 29.6273 19.9585C29.4547 20.131 29.3397 20.3611 29.0521 20.4186C28.7645 20.4761 28.4769 20.2461 28.4769 19.9585C28.4194 19.7284 28.592 19.4984 28.707 19.3258C29.3972 18.463 30.4325 17.8879 31.5254 17.6578C31.928 17.5428 32.3881 17.5428 32.8483 17.6003ZM44.6393 18.1755C44.9269 18.2905 45.2145 18.5781 45.387 18.8081C45.5596 18.9807 45.6746 19.2108 45.6746 19.4408C45.6746 19.7859 45.3295 20.016 44.9844 19.901C44.6968 19.7859 44.6393 19.4984 44.4092 19.2683C44.1792 19.0957 43.8916 18.8657 43.6615 18.8081C42.9713 18.5781 42.2811 18.8657 41.821 19.3258L41.3033 19.8435C41.3033 19.4408 41.5334 19.0957 41.821 18.8657C42.5112 18.1179 43.6615 17.8303 44.6393 18.1755Z" fill="#262626"/>
<path d="M40.8996 30.7734C40.8996 30.946 40.7846 31.1185 40.6696 31.2911C40.4395 31.6362 40.0369 31.8663 39.6343 31.9813C39.3467 32.0388 39.1166 31.8663 38.8865 31.9813C38.6565 31.9813 38.4264 32.0388 38.1963 31.9238C38.0813 31.8663 38.0813 31.6937 38.1963 31.5787C38.3689 31.3486 38.6565 31.1761 38.8865 31.1761C39.1166 31.1185 39.2892 31.1185 39.4617 31.2911L39.5192 31.6937C39.8068 31.5787 39.9218 31.4061 40.1519 31.2336L40.8996 30.7734Z" fill="#262626"/>
<path d="M33.3648 33.875C33.5374 33.875 33.6524 33.99 33.7675 34.1051L34.5152 34.5077C35.1479 34.7953 35.8381 34.9678 36.4708 35.1404C37.3335 35.428 38.1963 35.4855 39.0591 35.4855C39.7493 35.543 40.382 35.6005 41.0146 35.543L41.2447 35.658C40.2094 36.1757 38.8865 36.2907 37.7362 36.2332C36.4133 36.1757 35.0904 35.7731 33.94 35.1979C33.5949 34.9678 33.1923 34.7378 33.1348 34.2776C33.0773 34.1051 33.1923 33.875 33.3648 33.875Z" fill="#262626"/>
<path d="M35.2057 8.57456C37.1349 8.68489 39.0268 9.15299 40.7848 9.95498C41.5901 10.3576 42.4528 10.7602 43.2006 11.2779C43.6607 11.5655 44.1208 11.9106 44.466 12.3132L45.7313 13.7511C45.2137 13.9812 44.696 13.9237 44.1784 13.8662C43.2006 13.7511 42.2228 13.6361 41.245 13.6936L40.7848 13.6361L40.3822 13.3485L39.692 12.8884C39.692 13.1184 39.6345 13.291 39.5195 13.5211C39.4044 13.6361 39.2894 13.6936 39.1168 13.6936C38.8868 13.6361 38.7142 13.5211 38.4842 13.5211C35.5234 13.0847 32.5107 13.143 29.569 13.6936H28.9363L27.901 13.3485C27.9585 13.8662 28.131 14.3838 28.0735 14.844C28.016 15.074 28.016 15.3041 27.901 15.4766C27.4983 16.2819 27.0382 17.0296 26.6931 17.8924C26.2905 18.8702 25.9454 19.9055 25.7153 20.9408C25.7153 21.0558 25.6578 21.1709 25.5428 21.2284L24.8526 21.3434C25.1401 21.8611 25.1977 22.4938 25.1401 23.0689C25.0826 23.7591 24.9676 24.5644 24.6225 25.1395C25.0251 25.6572 25.1977 26.3474 25.1977 27.0376C25.2552 28.1304 25.1977 29.1658 24.795 30.2011C24.68 30.4311 24.5074 30.7187 24.2199 30.8338C24.1623 30.8913 23.9898 30.8913 23.9898 30.7762C23.8748 30.5462 23.8748 30.2586 23.8172 30.0285C23.7022 29.1658 23.2996 28.3605 22.6669 27.7278C22.2068 27.3252 21.6891 26.9226 21.1714 26.635C20.8263 26.52 20.5388 26.4049 20.2512 26.1749L19.9061 25.7147C19.2159 23.8742 18.9858 21.8611 19.2159 19.9055C19.4604 17.6135 20.1855 15.3988 21.344 13.406C21.9192 12.4857 22.6094 11.6805 23.3571 10.9328C23.9323 10.4151 24.5074 9.95498 25.1401 9.60988L25.9454 9.32229L27.7859 8.6896L28.8788 8.57456H31.352C32.6749 8.57456 33.8828 8.45953 35.2057 8.57456Z" fill="#262626"/>
</g>
</svg>
