<svg width="57" height="58" viewBox="0 0 57 58" fill="none" xmlns="http://www.w3.org/2000/svg">
<mask id="mask0_2_306" style="mask-type:luminance" maskUnits="userSpaceOnUse" x="0" y="0" width="57" height="58">
<path d="M56.5715 0.875H0.204498V57.242H56.5715V0.875Z" fill="white"/>
</mask>
<g mask="url(#mask0_2_306)">
<path d="M31.1121 9.40457C33.4703 9.74968 35.7134 10.67 37.6115 12.1079C39.222 13.3158 40.4874 14.9262 41.3501 16.7668C42.0979 18.3773 42.5005 20.2178 42.443 22.0009C42.3854 22.8636 42.2704 23.7264 41.9828 24.5316H41.8678L41.9253 23.3238C41.9828 21.5982 41.8103 19.9302 41.1776 18.3198C40.6024 16.5942 39.5671 15.0413 38.3017 13.7759C35.886 11.4752 32.665 10.2098 29.329 10.1523C27.1592 10.1164 25.0108 10.5863 23.0541 11.5248C21.0973 12.4632 19.386 13.8444 18.0556 15.5589C16.3523 17.8605 15.5355 20.6989 15.7549 23.5538L15.87 24.9918C16.3301 24.9918 16.9628 24.9918 17.3079 25.3944L17.1353 25.5669L16.1576 25.6245C15.4673 25.682 14.7771 25.912 14.2595 26.3722C13.6873 26.9865 13.3423 27.778 13.2817 28.6154C12.9941 30.4559 13.9719 32.354 15.5249 33.3893C16.4451 33.9645 17.5955 34.2521 18.6883 33.9069C18.9184 33.7919 19.206 33.6194 19.4936 33.7344C19.6661 33.7919 19.7236 33.9645 19.7811 34.137C20.9511 36.4896 22.7409 38.4783 24.9577 39.8887C25.4178 40.2914 25.993 40.6365 26.5682 40.9241C27.6035 41.3842 28.7538 41.7293 29.8467 42.0169L31.6872 42.477C31.9748 42.5345 32.2049 42.5345 32.435 42.6496L32.2049 42.7071C30.767 42.8221 29.4441 42.5345 28.0636 42.1319C27.3734 41.9594 26.7407 41.7293 26.108 41.4417C24.3008 40.5212 22.6663 39.2953 21.2766 37.8181L21.3916 39.4286C21.4491 40.4064 21.3916 41.4417 21.0465 42.4195C20.8165 43.1097 20.4138 43.7999 19.9537 44.3751C19.3785 44.9503 18.6883 45.4679 17.9981 45.8705C17.4229 46.2732 16.7902 46.6758 16.1576 46.9059L15.2373 47.1934L15.7549 46.6758L17.538 45.5254L18.8033 44.5477C19.7737 43.7215 20.4248 42.5821 20.6439 41.3267C20.7589 40.5214 20.7589 39.7162 20.7589 38.8534V37.3005C20.1838 36.4952 19.4936 35.6325 19.206 34.6547C18.2282 35.1148 17.0203 35.0573 16.0425 34.5972C15.0647 34.1945 14.202 33.5043 13.5693 32.6991C12.8791 31.7213 12.4764 30.6285 12.3614 29.4781C12.2464 28.3278 12.4764 27.1774 13.2242 26.2571C13.7418 25.682 14.4896 25.2218 15.2373 25.0493C15.0072 24.244 14.8922 23.3813 14.8922 22.5185C14.9395 20.6168 15.3894 18.7466 16.2123 17.0314C17.0352 15.3163 18.2123 13.795 19.6661 12.568C21.2367 11.2528 23.0712 10.2898 25.0458 9.7441C27.0203 9.19837 29.0889 9.08259 31.1121 9.40457Z" fill="#262626"/>
<path d="M38.3013 13.7817C39.5667 15.0471 40.602 16.6001 41.1772 18.3256C41.8099 19.9361 41.9825 21.6041 41.9249 23.3296L41.8674 24.5375L41.5798 25.4002L41.4648 26.148L41.5798 29.3689C41.5798 30.5768 41.6374 31.7847 41.5223 32.9925L41.3498 35.6958C41.2347 36.6161 40.9471 37.4789 40.5445 38.2841C39.9118 39.3194 39.0491 40.1822 38.0138 40.8149C37.266 41.275 36.4608 41.5051 35.6556 41.7352L33.4699 42.3679L32.4921 42.5404C32.4921 42.5979 32.5496 42.6554 32.6647 42.6554C33.1248 42.943 33.6424 42.943 34.1601 42.8855C33.9876 43.2881 33.93 43.6908 34.0451 44.1509C34.2176 44.5535 34.6778 44.7836 35.0229 44.9561C35.7131 45.3012 36.4033 45.3588 37.0935 45.4738C37.4961 45.8189 37.8987 46.279 38.0138 46.8542C38.1288 47.3143 38.1288 47.7745 37.8987 48.1771C37.6111 48.7523 37.0935 49.2124 36.5183 49.5C35.7706 49.9601 34.9653 50.3052 34.1026 50.5353C29.9033 51.5405 25.5238 51.5208 21.3337 50.4778C20.3559 50.2477 19.4357 49.9601 18.5729 49.5C17.8827 49.1549 17.25 48.7523 16.7324 48.2346C16.4448 47.832 16.2147 47.4294 16.1572 46.9117C16.7899 46.6817 17.4226 46.279 17.9977 45.8764C18.6879 45.4738 19.3782 44.9561 19.9533 44.381C20.4135 43.8058 20.8161 43.1156 21.0462 42.4254C21.3913 41.4476 21.4488 40.4123 21.3913 39.4345L21.2762 37.824L22.5416 39.1469C23.6344 40.0096 24.8423 40.8724 26.1077 41.4476C26.7404 41.7352 27.3731 41.9652 28.0633 42.1378C29.4437 42.5404 30.7666 42.828 32.2045 42.713L32.4346 42.6554C32.2045 42.5404 31.9744 42.5404 31.6869 42.4829L29.8463 42.0228C28.7535 41.7352 27.6031 41.3901 26.5678 40.9299L24.8998 39.9521C24.2671 39.4345 23.5769 38.9743 23.0017 38.3992C21.6729 37.1929 20.5805 35.7495 19.7808 34.1429C19.7233 33.9703 19.6657 33.7978 19.4932 33.7403C19.2056 33.6252 18.918 33.7978 18.6879 33.9128C17.5951 34.2579 16.4448 33.9703 15.5245 33.3952C14.7479 32.8825 14.1276 32.1657 13.7319 31.3235C13.3362 30.4813 13.1802 29.5463 13.2813 28.6212C13.3388 27.816 13.6839 27.0107 14.2591 26.378C14.7768 25.9179 15.467 25.6878 16.1572 25.6303L17.135 25.5728L17.3075 25.4002C16.9624 24.9976 16.3297 24.9976 15.8696 24.9976L15.7546 23.5597C15.5351 20.7048 16.3519 17.8664 18.0553 15.5648C19.3856 13.8503 21.097 12.4691 23.0537 11.5306C25.0104 10.5922 27.1588 10.1223 29.3286 10.1582C32.6647 10.2157 35.8856 11.4811 38.3013 13.7817Z" fill="#FFDECC"/>
<path d="M41.5807 25.3984C41.7533 25.3984 41.7533 25.6285 41.8108 25.7435C41.9833 26.3762 42.0408 27.0664 42.0984 27.6991L42.2134 28.907C42.2709 30.1724 42.3284 31.3802 42.2709 32.6456C42.2134 33.8535 42.2134 35.1764 41.9833 36.3842C41.739 37.6367 41.1919 38.8104 40.3899 39.8029C39.5879 40.7954 38.5552 41.5766 37.3819 42.0785C36.5192 42.4811 35.5989 42.7111 34.6211 42.8262V43.6889C34.6786 43.8615 34.7937 43.919 34.9087 44.034C35.5989 44.3791 36.2316 44.4942 36.9793 44.6667C37.6695 44.8393 38.3597 44.9543 39.0499 45.2994C38.8774 45.472 38.6473 45.5295 38.4173 45.5295C38.0146 45.587 37.5545 45.472 37.0944 45.472C36.4042 45.3569 35.7139 45.2994 35.0237 44.9543C34.6786 44.7818 34.2185 44.5517 34.0459 44.1491C33.9309 43.6889 33.9884 43.2863 34.161 42.8837C33.6433 42.9412 33.1257 42.9412 32.6655 42.6536C32.5505 42.6536 32.493 42.5961 32.493 42.5386L33.4708 42.366L35.6564 41.7334C36.4617 41.5033 37.2669 41.2732 38.0146 40.8131C39.0499 40.1804 39.9127 39.3176 40.5454 38.2823C40.948 37.4771 41.2356 36.6143 41.3506 35.694L41.5232 32.9907C41.6382 31.7829 41.5807 30.575 41.5807 29.3671L41.4657 26.1462L41.5807 25.3984ZM15.2378 26.9514C15.6979 26.9514 16.2156 27.0089 16.5607 27.354C16.8483 27.5841 17.1359 27.8717 17.2509 28.2168C17.3084 28.3893 17.2509 28.5619 17.1359 28.6769L16.3881 29.1371C15.9855 29.4822 15.9855 30.2299 16.3881 30.575C16.7332 30.8626 17.1934 31.0351 17.596 31.2077C17.711 31.2077 17.8836 31.2652 17.9411 31.3802C17.8836 31.4953 17.7685 31.5528 17.6535 31.5528C17.0783 31.5528 16.5032 31.3802 16.043 31.0351C15.7554 30.8626 15.5829 30.575 15.5254 30.2874C15.4103 29.8273 15.4103 29.3096 15.7554 28.907C15.9855 28.5619 16.3881 28.3893 16.7907 28.2168C16.5607 27.9292 16.3881 27.5841 15.9855 27.4691C15.5829 27.2965 15.1227 27.2965 14.7201 27.1815L15.2378 26.9514Z" fill="#262626"/>
<path d="M40.0267 23.2734C40.2568 23.2734 40.4869 23.2734 40.6019 23.446C40.832 23.6185 40.832 24.0212 40.5444 24.1937C40.3718 24.3087 40.1993 24.3087 39.9692 24.3087L38.9339 24.5388C38.9339 24.9414 38.8764 25.4016 38.7038 25.8042C38.5888 26.0918 38.3587 26.3219 38.1287 26.4944C37.7836 26.667 37.3809 26.5519 37.1509 26.2643L36.9783 25.8042C36.8058 25.9768 36.6907 26.1493 36.4607 26.2643C36.2881 26.3219 36.2306 26.2643 36.2306 26.0918C36.2881 25.7467 36.4607 25.4591 36.6907 25.229C37.2964 24.3902 38.137 23.7498 39.1065 23.3885L40.0267 23.2734ZM26.1075 24.0787C26.7402 24.0787 27.3154 24.1937 27.8906 24.3087C28.6958 24.5388 29.5011 24.7689 30.1913 25.3441C30.3638 25.5166 30.6514 25.6892 30.7089 25.9192C30.7089 26.0343 30.7089 26.0918 30.5939 26.0918L29.9612 25.8042C29.386 25.5166 28.6958 25.3441 28.0056 25.229C27.8906 25.7467 27.7755 26.2643 27.4304 26.7245C27.2004 26.9545 26.9128 27.0696 26.5677 27.0696C26.1075 27.0121 25.6474 26.782 25.3598 26.4369C25.0722 26.0343 25.0147 25.6316 24.9572 25.114L24.1519 25.3441C23.9794 25.4016 23.8068 25.4591 23.6343 25.4016C23.3467 25.3441 23.2317 25.0565 23.2892 24.7689C23.3467 24.5388 23.5768 24.4238 23.8068 24.3663C24.4971 24.0787 25.3598 24.0212 26.1075 24.0787Z" fill="#262626"/>
<path d="M28.294 17.5791C29.2142 17.6366 30.192 17.9817 30.9398 18.5569C31.1123 18.7294 31.3424 18.8444 31.3999 19.0745C31.4574 19.1895 31.3424 19.3621 31.2273 19.3046C30.7672 19.2471 30.3646 19.017 29.9044 18.902C29.5018 18.7294 29.0417 18.6144 28.5816 18.6144C28.1789 18.5569 27.7188 18.6144 27.3162 18.6719C26.4534 18.7869 25.5907 19.1895 24.8429 19.5922L23.6351 20.1098L23.5775 20.0523C23.6351 19.8222 23.7501 19.5346 23.9226 19.3621C24.2678 18.7869 24.9004 18.4418 25.4756 18.1542C26.3384 17.7516 27.3162 17.5215 28.294 17.5791ZM39.4523 17.8091C39.7399 17.9242 40.085 18.0967 40.3151 18.3843C40.5452 18.6144 40.6027 18.902 40.5452 19.2471L39.2223 18.8444C38.8196 18.7294 38.4745 18.7869 38.0719 18.7294C37.6693 18.7294 37.2091 18.7869 36.864 19.017L36.1163 19.4771H35.9438C35.8862 19.3046 35.9438 19.132 36.0588 19.017C36.3464 18.4993 36.8065 18.1542 37.3242 17.9817C38.0144 17.7516 38.7046 17.6366 39.4523 17.8091Z" fill="#262626"/>
<path d="M35.4252 30.6328V30.6903C35.1952 31.1505 34.7925 31.5531 34.2749 31.7256C34.1023 31.7832 33.8723 31.7832 33.7572 31.6681V31.4381C34.1599 31.1505 34.6775 30.9204 35.1376 30.7478L35.4252 30.6328Z" fill="#262626"/>
<path fill-rule="evenodd" clip-rule="evenodd" d="M27.3737 32.6428L26.5684 32.4128H26.5109C26.3959 32.3553 26.2233 32.3553 26.1658 32.4703C26.1083 32.5278 26.1658 32.6428 26.2233 32.6428L26.5684 32.8154L26.6835 32.8729C28.006 33.5409 29.4214 34.0062 30.8822 34.2533C30.8822 34.656 30.9973 35.0586 31.2849 35.4037C31.5725 35.8063 31.9751 36.1514 32.4927 36.324C33.0679 36.554 33.7006 36.4965 34.2758 36.2664C34.8509 36.0364 35.3111 35.5762 35.5411 35.0011C35.6562 34.771 35.6562 34.4834 35.6562 34.2533L36.6915 33.9082V33.8507L36.8065 33.7357C36.2505 33.7303 35.6945 33.7303 35.1385 33.7357C33.4868 33.8794 31.8233 33.802 30.192 33.5056L27.9489 32.8729L27.8338 32.8154L27.3737 32.6428ZM31.3424 34.3109C31.3999 34.886 31.86 35.3462 32.3777 35.6337C33.0679 36.1514 34.2182 35.9213 34.6784 35.1736C34.8509 34.9435 34.9085 34.656 34.966 34.3684V34.3109L33.4705 34.4259L33.528 34.4834C33.528 34.656 33.5856 34.771 33.4705 34.9435C33.3555 35.1161 33.1254 35.1161 33.0679 34.9435C32.9529 34.771 32.9529 34.5984 33.0104 34.4259C32.5316 34.3817 32.0522 34.3434 31.5725 34.3109H31.3424Z" fill="#262626"/>
<path d="M25.6485 6.99219H27.9492C30.7675 7.10722 33.5284 7.62488 36.2317 8.25757C37.8422 8.66019 39.3376 9.17785 40.7755 9.98309C41.5233 10.4432 42.3285 11.0184 42.9037 11.7086C43.5939 12.4563 44.054 13.3766 44.2266 14.3544C44.4567 15.5623 44.4567 16.8276 44.054 18.0355C43.7664 18.8983 43.2488 19.761 42.5011 20.3362C41.4658 21.199 40.1429 21.7741 38.82 21.8317C38.7049 21.8892 38.5899 21.8317 38.5899 21.6591L39.05 20.7388C38.4336 21.3429 37.6854 21.7957 36.8644 22.0617C36.6343 22.1192 36.2892 22.1768 36.0591 22.0617V21.7741C36.0591 20.9114 36.0016 20.1061 35.7715 19.3009C35.599 18.3806 35.1389 17.6329 34.7362 16.8276C34.8513 17.6904 34.7937 18.6107 34.6212 19.4734C34.4486 20.2787 34.1035 20.9689 33.5284 21.5441C33.4133 21.7741 33.1257 21.8317 32.8957 21.7166L32.7806 21.314C32.6656 20.6813 32.378 20.1061 32.0904 19.531C31.5728 18.3806 30.8251 17.4028 29.9623 16.4825C28.703 15.2235 27.2207 14.2093 25.591 13.4916C25.6756 15.5025 25.482 17.5155 25.0158 19.4734C24.7857 20.2787 24.4406 21.0839 23.923 21.7741C23.7504 22.0042 23.5204 22.3493 23.2328 22.4643H22.8301C22.8877 21.7741 22.8877 21.0839 22.7726 20.3937C22.6576 19.761 22.485 19.0708 22.1975 18.4956C22.0249 19.531 21.4497 20.3937 20.7595 21.199C20.2419 21.6591 19.7242 22.1192 19.0915 22.4643V26.3755L19.149 28.101C19.149 28.2736 18.9765 28.5612 18.8039 28.6187C18.5163 28.5612 18.2863 28.4461 18.0562 28.2736C17.366 27.8135 16.7333 27.2958 16.1581 26.6631C15.2142 25.6155 14.493 24.387 14.0382 23.0523C13.5834 21.7175 13.4045 20.3043 13.5123 18.8983C13.7044 16.4225 14.611 14.0557 16.122 12.0852C17.6331 10.1147 19.6837 8.62515 22.0249 7.79743C23.1752 7.33729 24.3831 7.0497 25.6485 6.99219Z" fill="#262626"/>
</g>
</svg>
