<svg width="58" height="58" viewBox="0 0 58 58" fill="none" xmlns="http://www.w3.org/2000/svg">
<mask id="mask0_2_278" style="mask-type:luminance" maskUnits="userSpaceOnUse" x="0" y="0" width="58" height="58">
<path d="M57.2381 0.875H0.871124V57.242H57.2381V0.875Z" fill="white"/>
</mask>
<g mask="url(#mask0_2_278)">
<path d="M30.2091 7.75307C31.8196 7.81058 33.4301 8.09817 35.0406 8.61583C37.2919 9.25141 39.2975 10.555 40.7923 12.3545C41.8851 13.7924 42.5753 15.5179 42.8054 17.3009C43.1158 19.2224 43.1546 21.178 42.9204 23.1102L42.6329 25.0658L42.4028 26.2161C42.3453 26.3312 42.3453 26.3312 42.2302 26.3312C42.1152 26.1011 42.1152 25.871 42.1152 25.641C42.0577 24.7782 42.1727 23.9729 42.2302 23.1102C42.2878 21.7298 42.4028 20.3494 42.2878 18.9689L41.9426 16.3807C41.54 14.7702 40.7923 13.2747 39.642 12.0669C38.6066 11.0316 37.3413 10.1688 36.0184 9.59362C34.753 9.07596 33.4876 8.73086 32.1647 8.50079C31.1294 8.32824 30.0941 8.27072 29.0588 8.27072C26.5065 8.22892 23.9816 8.80098 21.6966 9.93872C20.9488 10.4564 20.2586 11.0891 19.6834 11.7793C17.9136 14.1025 16.819 16.869 16.52 19.7742C16.4625 21.1546 16.52 22.4775 16.9801 23.8004L17.3828 24.6632L18.073 24.7207L18.1305 24.8932C17.9579 25.0083 17.7279 25.0083 17.4978 25.0658C16.9226 25.1808 16.3474 25.4109 15.8298 25.756C15.4272 26.0436 15.0245 26.3887 14.7945 26.8488C14.5069 27.424 14.6219 28.1142 14.737 28.7469C15.0245 29.8397 15.7148 30.875 16.635 31.5652C17.2677 32.0829 18.073 32.3705 18.8782 32.4855C19.4534 32.6005 20.0286 32.4855 20.6037 32.428C20.8913 32.6581 21.0639 33.1182 21.2364 33.4058L22.2717 34.9588C23.2074 36.2886 24.5343 37.2939 26.0679 37.8346C27.3333 38.3523 28.6561 38.6399 29.979 38.9274L32.3373 39.3876L33.3151 39.6752V39.9052H32.6248C31.3319 39.8331 30.0448 39.6794 28.7712 39.4451C27.0607 39.1047 25.4246 38.4619 23.9397 37.547C23.307 37.1444 22.7319 36.6268 22.2717 35.9941C22.6701 38.3914 22.3499 40.853 21.3514 43.0687C20.4887 44.6217 19.0508 45.8295 17.3252 46.3472C17.1527 46.4047 16.9226 46.4622 16.7501 46.4047C16.635 46.4047 16.635 46.3472 16.635 46.2321C16.6925 46.0596 16.8651 45.9446 16.9801 45.887C17.6703 45.4269 18.4756 45.0818 19.1658 44.5641C19.9135 43.9315 20.5462 43.2412 20.9488 42.3785C21.2939 41.5157 21.524 40.5379 21.639 39.5601C21.7541 38.8124 21.8116 38.0647 21.7541 37.2594L21.524 35.0738L20.4887 33.0032L19.3959 33.2332C18.5516 33.2578 17.7145 33.0707 16.9611 32.6889C16.2076 32.3072 15.5616 31.7429 15.0821 31.0476C14.3323 30.0977 13.9268 28.9217 13.9317 27.7116C13.9317 27.1939 14.1043 26.6763 14.3919 26.2736C14.6794 25.871 15.0821 25.5259 15.4847 25.2958C15.7723 25.0658 16.1749 24.9507 16.52 24.8357L16.0023 23.4553C15.7148 22.1899 15.7148 20.867 15.8873 19.6016C16.264 16.4607 17.52 13.49 19.5109 11.0316C20.0286 10.4564 20.5462 9.93872 21.1789 9.5361C21.5815 9.30603 21.9841 9.24852 22.3292 9.01845C24.8025 7.92562 27.5058 7.58051 30.2091 7.75307Z" fill="#262626"/>
<path d="M29.0581 8.26915C31.448 8.18026 33.8271 8.63248 36.0177 9.59205C37.3406 10.1672 38.606 11.03 39.6413 12.0653C40.7916 13.2732 41.5394 14.7686 41.942 16.3791L42.2871 18.9674C42.4021 20.3478 42.2871 21.7282 42.2296 23.1086C42.172 23.9714 42.057 24.7766 42.1145 25.6394C42.1145 25.8695 42.1145 26.0995 42.2296 26.3296L42.172 27.4799C42.057 27.7675 42.057 28.0551 42.057 28.4002C41.942 29.7806 41.942 31.2186 41.7119 32.6565C41.6544 33.3467 41.5394 34.0944 41.2518 34.7271C41.0792 35.2448 40.7916 35.7049 40.389 36.1075C39.6988 36.8553 38.836 37.4879 37.9158 38.0056C36.8229 38.6383 35.6726 38.9259 34.5798 39.386C34.2922 39.5011 34.0046 39.6161 33.832 39.8462C34.2922 39.9037 34.6948 39.8462 35.1549 39.7311C34.8673 40.4213 34.8098 41.1115 34.8098 41.8017C34.8098 42.0893 34.7523 42.4344 34.8673 42.722C35.0399 43.0096 35.3275 43.2397 35.6151 43.4122L37.6282 44.16C38.8936 44.6201 40.1014 45.1953 41.3668 45.7129C41.4818 45.943 41.6544 46.1155 41.7119 46.4031C42.057 47.0358 42.1145 47.726 41.8845 48.4162C41.5969 49.164 41.0217 49.7966 40.3315 50.1993C39.4112 50.832 38.2609 51.2921 37.168 51.5797C32.6958 52.5352 28.0589 52.3971 23.6515 51.1771C22.5011 50.7744 21.3508 50.3718 20.3155 49.7966C19.5102 49.3365 18.6475 48.7613 18.0148 48.0136C17.6697 47.5535 17.3821 46.9208 17.3246 46.3456C18.6714 45.9345 19.8634 45.1278 20.7456 44.0302C21.6277 42.9326 22.1593 41.595 22.2711 40.1913C22.5011 38.8108 22.5011 37.3729 22.2711 35.9925C22.7312 36.6252 23.3064 37.1428 23.9391 37.5455L25.492 38.3507C27.747 39.3235 30.1689 39.8509 32.6242 39.9037H33.3144V39.6736L32.3366 39.386L29.9784 38.9259C28.6555 38.6383 27.3326 38.3507 26.0672 37.833C25.3195 37.4879 24.5142 37.0853 23.824 36.6252C23.2488 36.1075 22.7312 35.5899 22.2711 34.9572L21.2357 33.4042C21.0632 33.1166 20.8906 32.6565 20.6031 32.4264C20.0279 32.4839 19.4527 32.599 18.8775 32.4839C18.0723 32.3689 17.2671 32.0813 16.6344 31.5637C15.7152 30.8526 15.0497 29.8643 14.7363 28.7453C14.6213 28.1126 14.5062 27.4224 14.7938 26.8472C15.0239 26.3871 15.4265 26.042 15.8291 25.7544C16.3468 25.4093 16.9219 25.1792 17.4971 25.0642C17.7272 25.0067 17.9573 25.0067 18.1298 24.8917L18.0723 24.7191L17.3821 24.6616L16.9795 23.7988C16.5193 22.4759 16.4618 21.153 16.5768 19.7726C16.859 16.8731 17.9335 14.1072 19.6828 11.7777C20.258 11.0875 20.9482 10.4548 21.6959 9.93716C23.9759 8.77951 26.5011 8.18767 29.0581 8.21164V8.26915Z" fill="#FFDECC"/>
<path d="M16.6934 27.1406C16.9235 27.1406 17.096 27.1406 17.3261 27.2557C17.6137 27.3132 17.9588 27.4857 18.1313 27.7158C18.2464 27.8884 18.2464 28.1184 18.1313 28.291C17.8437 28.6361 17.4411 28.8661 17.211 29.2112C17.5561 29.4413 18.0163 29.5564 18.4189 29.7289C18.649 29.7864 18.879 29.9015 19.0516 30.074L19.1091 30.2466L18.649 30.1315L17.2686 29.7289C17.0385 29.6714 16.8084 29.5564 16.7509 29.3263C16.6934 29.1537 16.8084 28.9237 16.9235 28.7511L17.7862 28.0034C17.5561 27.6008 16.9235 27.5432 16.6934 27.1406ZM42.1736 27.4857L42.2886 27.6583L42.4036 28.5786C42.5229 30.2848 42.4844 31.9984 42.2886 33.6976C42.1736 34.3303 42.001 35.0205 41.7134 35.5957C40.1874 37.5923 38.0438 39.0281 35.6166 39.6794C35.5591 40.4846 35.444 41.4624 35.5016 42.3827L35.7891 42.6703C36.2493 43.0154 36.8244 43.188 37.3421 43.3605C38.6875 43.79 39.9956 44.3286 41.2533 44.971C41.6559 45.2011 42.001 45.4886 42.2886 45.8337C42.001 45.8913 41.7134 45.7762 41.3683 45.7187C40.1029 45.2011 38.8951 44.6259 37.6297 44.1657L35.6166 43.418C35.329 43.2455 35.0414 43.0154 34.8689 42.7278C34.7538 42.4402 34.8113 42.0951 34.8113 41.8075C34.8113 41.1173 34.8689 40.4271 35.1564 39.7369C34.6963 39.852 34.2937 39.9095 33.8335 39.852C34.0061 39.6219 34.2937 39.5068 34.5813 39.3918C35.6741 38.9317 36.8244 38.6441 37.9173 38.0114C38.8376 37.4937 39.7003 36.8611 40.3905 36.1133C40.7931 35.7107 41.0807 35.2506 41.2533 34.7329C41.5409 34.1002 41.6559 33.3525 41.7134 32.6623C41.9435 31.2244 41.9435 29.7864 42.0585 28.406C42.0585 28.0609 42.0585 27.7733 42.1736 27.4857Z" fill="#262626"/>
<path d="M41.5975 23.625L41.4825 24.0276C41.3099 24.3152 41.1374 24.5453 40.8498 24.7178C40.5622 24.8904 40.2171 24.9479 39.872 25.0054L38.8367 25.1205C38.5491 25.1205 38.3765 25.293 38.2615 25.4656L37.8589 25.8682C37.7438 25.9257 37.5713 25.8107 37.6288 25.6956C37.6863 25.2355 38.0314 24.8904 38.2615 24.5453C38.434 24.3727 38.6641 24.1427 38.9517 24.1427L40.6772 23.8551C40.9648 23.7976 41.2524 23.625 41.5975 23.625ZM24.0547 23.8551C24.7449 23.7976 25.2626 24.0276 25.8953 24.0851C26.758 24.2002 27.6208 24.3152 28.4836 24.3152L29.864 24.4302C30.3241 24.4878 30.8418 24.4302 31.2444 24.6603C31.647 24.8904 31.9346 25.2355 32.1647 25.5806C32.2222 25.6956 32.2797 25.8107 32.1647 25.9832C32.1071 26.0407 31.9921 25.9832 31.9346 25.9257C31.7045 25.8107 31.532 25.5806 31.3019 25.5231L30.6117 25.4656L29.0012 25.408L27.7358 25.3505C27.1607 25.293 26.5855 25.293 26.0103 25.0629C25.6077 24.9479 25.3201 24.7178 24.9175 24.5453L24.2273 24.0276C24.1122 23.9701 24.0547 23.9701 24.0547 23.8551Z" fill="#262626"/>
<path d="M30.6687 16.9549C31.0713 16.9549 31.4739 17.0699 31.7615 17.3C31.9916 17.415 32.1641 17.53 32.2216 17.7601C32.2791 17.8751 32.2216 18.0477 32.1066 18.1052C31.819 18.1627 31.5314 17.9902 31.3013 17.9327L30.7837 17.8751C30.036 17.8176 29.2882 17.9327 28.5405 18.1052C27.2819 18.4613 26.1081 19.0678 25.0895 19.8882C24.8594 20.0033 24.5718 20.1758 24.2842 20.1183C24.1117 20.1183 24.1117 19.8882 24.1692 19.7157C24.2267 19.3706 24.5718 19.083 24.8594 18.7954C25.4346 18.2778 26.1823 17.9327 26.8725 17.6451C28.0229 17.1274 29.4033 16.8398 30.6687 16.9549ZM39.6414 17.0699C40.044 16.9549 40.4466 17.0124 40.7917 17.2425C41.0218 17.415 41.2518 17.5876 41.3094 17.8751C41.3669 18.0477 41.3669 18.2202 41.1943 18.2778C41.0218 18.3353 40.7917 18.3353 40.6191 18.2202C40.3316 18.0477 40.1015 17.8751 39.7564 17.8751C39.4688 17.8751 39.1812 17.9327 38.9511 18.0477C38.491 18.2778 38.0309 18.6804 37.8008 19.1405L37.4557 19.6582H37.2831V19.3131C37.3982 18.8529 37.6858 18.3928 38.0309 18.0477C38.4335 17.5876 39.0087 17.1849 39.6414 17.0699Z" fill="#262626"/>
<path d="M14.1617 27.0248C14.4492 27.0248 14.7368 26.9673 14.9669 27.1399C15.1395 27.2549 15.2545 27.4274 15.197 27.6575C15.0819 27.8876 14.8519 28.0601 14.5643 28.0601H13.644C13.3564 28.0026 13.1263 27.8876 13.0113 27.6575C12.9538 27.4274 13.1263 27.2549 13.2989 27.1399C13.5865 27.0248 13.8741 27.0823 14.1617 27.0248ZM14.9094 28.3477C15.0819 28.4052 15.312 28.5203 15.312 28.7503C15.312 28.9229 15.2545 29.0955 15.0819 29.153C14.7943 29.383 14.4492 29.383 14.1041 29.4981C13.8166 29.5556 13.529 29.6131 13.2989 29.4406C13.0688 29.268 13.1263 28.9229 13.2989 28.7503C13.529 28.5203 13.759 28.5203 14.0466 28.4628C14.3342 28.4052 14.6218 28.2902 14.9094 28.3477ZM19.0506 31.3386H19.5108C19.6833 31.3961 19.8559 31.5687 19.8559 31.7988C19.8559 32.0864 19.6258 32.3164 19.3382 32.3739C19.0506 32.489 18.8206 32.2589 18.7055 32.0288C18.648 31.7412 18.763 31.3961 19.0506 31.3386Z" fill="#262626"/>
<path d="M36.6509 29.1484C36.6509 29.321 36.5359 29.4935 36.4209 29.6661C36.1908 30.0112 35.7882 30.2413 35.3856 30.3563C35.098 30.4138 34.8679 30.2413 34.6378 30.3563C34.4078 30.3563 34.1777 30.4138 33.9476 30.2988C33.8326 30.2413 33.8326 30.0687 33.9476 29.9537C34.1202 29.7236 34.4078 29.5511 34.6378 29.5511C34.8679 29.4935 35.0405 29.4935 35.213 29.6661L35.2705 30.0687C35.5581 29.9537 35.6732 29.7811 35.9032 29.6086L36.6509 29.1484Z" fill="#262626"/>
<path d="M43.0922 27.9461C43.6098 27.9461 44.07 28.1762 44.3576 28.5788C44.492 28.7555 44.5898 28.9572 44.6453 29.1721C44.7007 29.387 44.7127 29.6108 44.6806 29.8305C44.6485 30.0501 44.5728 30.2611 44.4581 30.4511C44.3433 30.6411 44.1918 30.8063 44.0124 30.937C44.4726 31.0521 44.9327 31.3397 45.2778 31.6848C45.7955 32.3175 46.1981 33.1802 46.1406 34.043C46.0831 34.5031 45.9105 34.9057 45.6805 35.2508C45.2203 35.9986 44.4726 36.5162 43.6673 36.8613L44.1275 37.379C44.3 37.7816 44.3576 38.1842 44.3576 38.6444C44.3 39.3346 44.0124 40.0248 43.4948 40.5424C42.9007 41.1105 42.1286 41.4559 41.3091 41.5202C40.734 41.5777 40.1013 41.5777 39.5261 41.4052C39.4686 41.8078 39.3535 42.268 39.181 42.6706C38.7935 43.3541 38.1771 43.8788 37.4406 44.1524C36.704 44.426 35.8945 44.4308 35.1548 44.166C34.4646 43.8784 33.8894 43.3608 33.5443 42.7856C32.6815 43.3033 31.7613 43.4758 30.7835 43.4758C29.9782 43.5333 29.0004 43.4758 28.3102 43.0732C27.8501 42.9006 27.5625 42.5555 27.2749 42.2104C27.1024 42.0379 26.9873 41.8653 26.9298 41.5777C26.2971 42.0954 25.4344 42.2104 24.6866 42.0954C24.1115 41.9228 23.5938 41.6353 23.3062 41.1176C23.0186 40.7725 22.9611 40.2548 22.9611 39.7947H22.1559C21.6957 39.7372 21.2356 39.5071 20.833 39.2195C20.2003 38.6444 19.6826 37.8966 19.3375 37.0914C19.2225 36.7463 19.1075 36.4012 19.1075 35.9986C19.1075 35.3659 19.3375 34.7332 19.7401 34.2155C19.5676 33.8129 19.5101 33.4103 19.6251 33.0077C19.7977 32.3175 20.3153 31.7423 20.8905 31.3972C21.4081 31.0521 22.0408 30.937 22.6735 30.9946C22.7886 30.6495 22.9611 30.4194 23.2487 30.1893C23.8814 29.6141 24.6866 29.269 25.5494 29.269C26.1246 29.269 26.6422 29.3266 27.1024 29.5566C27.3324 29.2115 27.62 29.039 27.9651 28.9239C28.5978 28.6364 29.288 28.6939 29.9207 28.9815C31.0135 29.3841 31.8763 30.0168 32.9116 30.4194C33.1992 30.6495 33.6018 30.5919 34.0044 30.6495C34.4071 30.707 34.8097 30.6495 35.2123 30.5919C35.3849 30.5344 35.6149 30.5344 35.73 30.4194L36.8228 29.8442L37.9731 28.9815C38.4333 28.6939 39.0084 28.4063 39.5836 28.4638C39.8137 28.5213 39.9862 28.6364 40.1013 28.8089C40.9892 28.2279 42.0313 27.9274 43.0922 27.9461Z" fill="#262626"/>
<path d="M29.232 33.2882C29.4046 33.2307 29.5196 33.2882 29.5196 33.4032C29.5196 33.5758 29.3471 33.7483 29.1745 33.8058C29.002 33.6333 29.0595 33.4032 29.232 33.2882ZM30.67 33.9784L32.7406 34.381L34.4661 34.4961C34.8687 34.5536 35.2138 34.4961 35.559 34.6111C35.5014 34.7261 35.3864 34.7836 35.2138 34.8412C33.7878 35.0658 32.3288 34.9475 30.9576 34.4961C30.785 34.4385 30.5549 34.3235 30.4974 34.1509C30.4399 34.0359 30.5549 33.9209 30.67 33.9784Z" fill="#FFDECC"/>
<path d="M28.9443 7.00631C30.5685 7.00954 32.1878 7.18304 33.7758 7.52397C34.4085 7.69652 34.9837 7.81155 35.5588 8.04162L37.5719 8.78935C38.1471 8.9619 38.6648 9.307 39.2399 9.53707L40.1602 9.88218L41.8282 10.2273C42.1158 10.3423 42.3459 10.5149 42.4609 10.8025C42.6335 11.1476 42.5759 11.4927 42.4609 11.8378L43.0361 12.1254C43.3237 12.4129 43.4387 12.8156 43.3237 13.2182C43.2086 13.4483 42.9786 13.6208 42.7485 13.7358C41.5246 14.3635 40.1148 14.527 38.7798 14.196L36.249 13.6208L32.683 12.643C29.6342 11.6 26.3159 11.661 23.3076 12.8156L23.0776 13.6208C22.8475 14.5411 22.6749 15.4614 22.6174 16.3816V17.3594L22.5599 17.8196C22.3874 18.2222 22.0423 18.6248 21.8122 19.0274C21.122 20.0627 20.4893 21.1556 19.9716 22.2484L19.8566 23.0536V25.2968C19.8566 25.5844 19.9716 25.8145 19.7991 26.0445C18.9363 25.9295 18.0736 25.6994 17.1533 25.4694C17.0382 25.4694 16.8657 25.4694 16.7507 25.3543L16.348 24.8367C16.118 24.6641 16.0605 24.319 15.9454 24.0314C15.5428 22.8236 15.4278 21.4432 15.4278 20.1203C15.4278 18.5098 15.7154 16.9568 16.0029 15.4038C16.233 14.5411 16.5781 13.7358 16.9807 12.9881C17.5559 11.8378 18.3611 10.86 19.2814 9.99721C20.2017 9.07694 21.2945 8.44425 22.5024 7.98411C24.5674 7.24928 26.7543 6.91735 28.9443 7.00631ZM18.3036 26.0445C18.8788 26.0445 19.454 26.2171 19.9716 26.3321C20.2017 26.3896 20.4893 26.5047 20.6618 26.6772C20.8344 26.7923 20.7769 27.0223 20.6043 27.0799C20.0867 27.2524 19.684 27.0799 19.2239 26.9648C18.8788 26.8498 18.4187 26.7348 18.0736 26.5047C17.9585 26.4472 17.786 26.2746 17.901 26.1596C18.016 26.0445 18.1886 26.0445 18.3036 26.0445ZM43.4387 32.7741C43.4962 32.8891 43.4962 32.9466 43.3812 33.0617L43.4387 32.7741Z" fill="#262626"/>
</g>
</svg>
