<svg width="20" height="20" viewBox="0 0 20 20" fill="none" xmlns="http://www.w3.org/2000/svg">
<path d="M7.94134 1.9429C8.71403 0.62493 10.6193 0.624932 11.392 1.9429L13.1179 4.88664C13.3999 5.36761 13.8698 5.70904 14.4144 5.8286L17.7473 6.5603C19.2396 6.8879 19.8284 8.69996 18.8137 9.8421L16.5473 12.3931C16.177 12.8099 15.9975 13.3624 16.0521 13.9173L16.3862 17.3132C16.5357 18.8337 14.9943 19.9536 13.5945 19.3415L10.468 17.9744C9.95713 17.751 9.37625 17.751 8.86541 17.9744L5.73889 19.3415C4.33909 19.9536 2.79766 18.8337 2.94722 17.3132L3.28128 13.9173C3.33586 13.3624 3.15635 12.8099 2.78606 12.3931L0.519709 9.8421C-0.494977 8.69995 0.0937984 6.8879 1.58603 6.5603L4.91901 5.8286C5.46358 5.70904 5.93352 5.36761 6.2155 4.88664L7.94134 1.9429Z" fill="#FF8D4D"/>
</svg>
